<svg xmlns="http://www.w3.org/2000/svg" width="1200" height="760" viewBox="0 0 1200 760" role="img" aria-labelledby="title desc">
  <title id="title">Sample WrenchTime OS dashboard mockup with fake data</title>
  <desc id="desc">A sanitized dashboard mockup showing generic operational cards and fake aggregate metrics.</desc>
  <rect width="1200" height="760" fill="#f7f8fb"/>

  <rect x="0" y="0" width="1200" height="72" fill="#111827"/>
  <text x="40" y="45" font-family="Inter, Arial, sans-serif" font-size="24" font-weight="700" fill="#ffffff">WrenchTime OS</text>
  <text x="1010" y="43" font-family="Inter, Arial, sans-serif" font-size="14" fill="#d1d5db">Sample mockup</text>

  <text x="40" y="122" font-family="Inter, Arial, sans-serif" font-size="28" font-weight="700" fill="#111827">Operations Dashboard</text>
  <text x="40" y="150" font-family="Inter, Arial, sans-serif" font-size="15" fill="#6b7280">Fake data only - public case study artifact</text>

  <g transform="translate(40 190)">
    <rect width="250" height="130" rx="8" fill="#ffffff" stroke="#d9dee8"/>
    <text x="22" y="38" font-family="Inter, Arial, sans-serif" font-size="15" font-weight="700" fill="#374151">Quotes</text>
    <text x="22" y="78" font-family="Inter, Arial, sans-serif" font-size="34" font-weight="800" fill="#111827">12</text>
    <text x="22" y="106" font-family="Inter, Arial, sans-serif" font-size="14" fill="#6b7280">4 awaiting review</text>
  </g>

  <g transform="translate(315 190)">
    <rect width="250" height="130" rx="8" fill="#ffffff" stroke="#d9dee8"/>
    <text x="22" y="38" font-family="Inter, Arial, sans-serif" font-size="15" font-weight="700" fill="#374151">Scheduled Jobs</text>
    <text x="22" y="78" font-family="Inter, Arial, sans-serif" font-size="34" font-weight="800" fill="#111827">7</text>
    <text x="22" y="106" font-family="Inter, Arial, sans-serif" font-size="14" fill="#6b7280">Next 14 days</text>
  </g>

  <g transform="translate(590 190)">
    <rect width="250" height="130" rx="8" fill="#ffffff" stroke="#d9dee8"/>
    <text x="22" y="38" font-family="Inter, Arial, sans-serif" font-size="15" font-weight="700" fill="#374151">Deposits</text>
    <text x="22" y="78" font-family="Inter, Arial, sans-serif" font-size="34" font-weight="800" fill="#111827">$4.8k</text>
    <text x="22" y="106" font-family="Inter, Arial, sans-serif" font-size="14" fill="#6b7280">Mock aggregate value</text>
  </g>

  <g transform="translate(865 190)">
    <rect width="250" height="130" rx="8" fill="#ffffff" stroke="#d9dee8"/>
    <text x="22" y="38" font-family="Inter, Arial, sans-serif" font-size="15" font-weight="700" fill="#374151">Expenses</text>
    <text x="22" y="78" font-family="Inter, Arial, sans-serif" font-size="34" font-weight="800" fill="#111827">$1.6k</text>
    <text x="22" y="106" font-family="Inter, Arial, sans-serif" font-size="14" fill="#6b7280">Needs 3 annotations</text>
  </g>

  <g transform="translate(40 350)">
    <rect width="525" height="170" rx="8" fill="#ffffff" stroke="#d9dee8"/>
    <text x="24" y="42" font-family="Inter, Arial, sans-serif" font-size="17" font-weight="700" fill="#111827">Tracking Health</text>
    <rect x="24" y="70" width="430" height="14" rx="7" fill="#e5e7eb"/>
    <rect x="24" y="70" width="344" height="14" rx="7" fill="#16a34a"/>
    <text x="24" y="112" font-family="Inter, Arial, sans-serif" font-size="14" fill="#374151">Meta Pixel: active</text>
    <text x="24" y="140" font-family="Inter, Arial, sans-serif" font-size="14" fill="#374151">Google Ads gtag: active</text>
    <text x="390" y="112" font-family="Inter, Arial, sans-serif" font-size="14" font-weight="700" fill="#16a34a">80%</text>
  </g>

  <g transform="translate(590 350)">
    <rect width="525" height="170" rx="8" fill="#ffffff" stroke="#d9dee8"/>
    <text x="24" y="42" font-family="Inter, Arial, sans-serif" font-size="17" font-weight="700" fill="#111827">Advisory Notes</text>
    <circle cx="33" cy="78" r="5" fill="#2563eb"/>
    <text x="52" y="83" font-family="Inter, Arial, sans-serif" font-size="14" fill="#374151">Review conversion source mix this week.</text>
    <circle cx="33" cy="112" r="5" fill="#2563eb"/>
    <text x="52" y="117" font-family="Inter, Arial, sans-serif" font-size="14" fill="#374151">Check expense annotations before month-end.</text>
    <circle cx="33" cy="146" r="5" fill="#2563eb"/>
    <text x="52" y="151" font-family="Inter, Arial, sans-serif" font-size="14" fill="#374151">Confirm upcoming schedule capacity.</text>
  </g>

  <g transform="translate(40 550)">
    <rect width="1075" height="130" rx="8" fill="#ffffff" stroke="#d9dee8"/>
    <text x="24" y="42" font-family="Inter, Arial, sans-serif" font-size="17" font-weight="700" fill="#111827">Pipeline Snapshot</text>
    <rect x="24" y="66" width="180" height="34" rx="6" fill="#dbeafe"/>
    <text x="46" y="88" font-family="Inter, Arial, sans-serif" font-size="13" font-weight="700" fill="#1e3a8a">New Quote</text>
    <rect x="230" y="66" width="180" height="34" rx="6" fill="#dcfce7"/>
    <text x="252" y="88" font-family="Inter, Arial, sans-serif" font-size="13" font-weight="700" fill="#166534">Scheduled</text>
    <rect x="436" y="66" width="180" height="34" rx="6" fill="#fef3c7"/>
    <text x="458" y="88" font-family="Inter, Arial, sans-serif" font-size="13" font-weight="700" fill="#92400e">Deposit Paid</text>
    <rect x="642" y="66" width="180" height="34" rx="6" fill="#ede9fe"/>
    <text x="664" y="88" font-family="Inter, Arial, sans-serif" font-size="13" font-weight="700" fill="#5b21b6">Work Complete</text>
    <rect x="848" y="66" width="180" height="34" rx="6" fill="#fee2e2"/>
    <text x="870" y="88" font-family="Inter, Arial, sans-serif" font-size="13" font-weight="700" fill="#991b1b">Balance Due</text>
  </g>
</svg>
